%TF.GenerationSoftware,KiCad,Pcbnew,9.0.1*%
%TF.CreationDate,2025-05-18T15:09:49+03:00*%
%TF.ProjectId,gnss_motherboard,676e7373-5f6d-46f7-9468-6572626f6172,rev?*%
%TF.SameCoordinates,Original*%
%TF.FileFunction,Soldermask,Top*%
%TF.FilePolarity,Negative*%
%FSLAX46Y46*%
G04 Gerber Fmt 4.6, Leading zero omitted, Abs format (unit mm)*
G04 Created by KiCad (PCBNEW 9.0.1) date 2025-05-18 15:09:49*
%MOMM*%
%LPD*%
G01*
G04 APERTURE LIST*
G04 Aperture macros list*
%AMRoundRect*
0 Rectangle with rounded corners*
0 $1 Rounding radius*
0 $2 $3 $4 $5 $6 $7 $8 $9 X,Y pos of 4 corners*
0 Add a 4 corners polygon primitive as box body*
4,1,4,$2,$3,$4,$5,$6,$7,$8,$9,$2,$3,0*
0 Add four circle primitives for the rounded corners*
1,1,$1+$1,$2,$3*
1,1,$1+$1,$4,$5*
1,1,$1+$1,$6,$7*
1,1,$1+$1,$8,$9*
0 Add four rect primitives between the rounded corners*
20,1,$1+$1,$2,$3,$4,$5,0*
20,1,$1+$1,$4,$5,$6,$7,0*
20,1,$1+$1,$6,$7,$8,$9,0*
20,1,$1+$1,$8,$9,$2,$3,0*%
G04 Aperture macros list end*
%ADD10C,3.800000*%
%ADD11RoundRect,0.250000X-0.600000X0.600000X-0.600000X-0.600000X0.600000X-0.600000X0.600000X0.600000X0*%
%ADD12C,1.700000*%
%ADD13RoundRect,0.250000X-0.600000X-0.600000X0.600000X-0.600000X0.600000X0.600000X-0.600000X0.600000X0*%
G04 APERTURE END LIST*
D10*
%TO.C,H4*%
X136759999Y-103990000D03*
%TD*%
%TO.C,H9*%
X136759999Y-51990000D03*
%TD*%
%TO.C,H5*%
X186759999Y-51990000D03*
%TD*%
%TO.C,H14*%
X141350000Y-133800000D03*
%TD*%
%TO.C,H13*%
X110352000Y-133821971D03*
%TD*%
%TO.C,H12*%
X164200000Y-119800000D03*
%TD*%
%TO.C,H11*%
X95200000Y-86300000D03*
%TD*%
%TO.C,H10*%
X186759999Y-103990000D03*
%TD*%
%TO.C,H8*%
X141350000Y-113790000D03*
%TD*%
%TO.C,H7*%
X190200000Y-86300000D03*
%TD*%
%TO.C,H6*%
X164200000Y-52800000D03*
%TD*%
%TO.C,H3*%
X110352000Y-113821971D03*
%TD*%
%TO.C,H2*%
X121200000Y-119800000D03*
%TD*%
%TO.C,H1*%
X121200000Y-52800000D03*
%TD*%
D11*
%TO.C,J1*%
X177320000Y-39060000D03*
D12*
X177320000Y-41600000D03*
X174780000Y-39060000D03*
X174780000Y-41600000D03*
X172240000Y-39060000D03*
X172240000Y-41600000D03*
X169700000Y-39060000D03*
X169700000Y-41600000D03*
X167160000Y-39060000D03*
X167160000Y-41600000D03*
X164620000Y-39060000D03*
X164620000Y-41600000D03*
X162080000Y-39060000D03*
X162080000Y-41600000D03*
X159540000Y-39060000D03*
X159540000Y-41600000D03*
X157000000Y-39060000D03*
X157000000Y-41600000D03*
X154460000Y-39060000D03*
X154460000Y-41600000D03*
X151920000Y-39060000D03*
X151920000Y-41600000D03*
X149380000Y-39060000D03*
X149380000Y-41600000D03*
X146840000Y-39060000D03*
X146840000Y-41600000D03*
%TD*%
D13*
%TO.C,J2*%
X191000000Y-117520000D03*
D12*
X193540000Y-117520000D03*
X191000000Y-120060000D03*
X193540000Y-120060000D03*
X191000000Y-122600000D03*
X193540000Y-122600000D03*
X191000000Y-125140000D03*
X193540000Y-125140000D03*
X191000000Y-127680000D03*
X193540000Y-127680000D03*
X191000000Y-130220000D03*
X193540000Y-130220000D03*
%TD*%
M02*
