%TF.GenerationSoftware,KiCad,Pcbnew,9.0.1*%
%TF.CreationDate,2025-05-18T15:09:49+03:00*%
%TF.ProjectId,gnss_motherboard,676e7373-5f6d-46f7-9468-6572626f6172,rev?*%
%TF.SameCoordinates,Original*%
%TF.FileFunction,Legend,Top*%
%TF.FilePolarity,Positive*%
%FSLAX46Y46*%
G04 Gerber Fmt 4.6, Leading zero omitted, Abs format (unit mm)*
G04 Created by KiCad (PCBNEW 9.0.1) date 2025-05-18 15:09:49*
%MOMM*%
%LPD*%
G01*
G04 APERTURE LIST*
%ADD10C,0.200000*%
%ADD11C,0.300000*%
%ADD12C,0.254000*%
%ADD13C,0.150000*%
%ADD14C,0.120000*%
G04 APERTURE END LIST*
D10*
X142352000Y-136821970D02*
X142352000Y-136821971D01*
X142852000Y-113821971D02*
G75*
G02*
X139852000Y-113821971I-1500000J0D01*
G01*
X139852000Y-113821971D02*
G75*
G02*
X142852000Y-113821971I1500000J0D01*
G01*
X142852000Y-133821971D02*
G75*
G02*
X139852000Y-133821971I-1500000J0D01*
G01*
X139852000Y-133821971D02*
G75*
G02*
X142852000Y-133821971I1500000J0D01*
G01*
X111852000Y-133821971D02*
G75*
G02*
X108852000Y-133821971I-1500000J0D01*
G01*
X108852000Y-133821971D02*
G75*
G02*
X111852000Y-133821971I1500000J0D01*
G01*
X111852000Y-113821971D02*
G75*
G02*
X108852000Y-113821971I-1500000J0D01*
G01*
X108852000Y-113821971D02*
G75*
G02*
X111852000Y-113821971I1500000J0D01*
G01*
X144352000Y-134821970D02*
G75*
G02*
X142352000Y-136821970I-2000000J0D01*
G01*
X109352000Y-136821971D02*
X142352000Y-136821971D01*
X109352000Y-136821971D02*
G75*
G02*
X107352000Y-134821972I-1J1999999D01*
G01*
X107352000Y-112822000D02*
X107352000Y-134821972D01*
X107352000Y-112822000D02*
G75*
G02*
X109339371Y-110821970I2000070J0D01*
G01*
X142352020Y-110821971D02*
X109339371Y-110821971D01*
X142352020Y-110821971D02*
G75*
G02*
X144351999Y-112821950I0J-1999979D01*
G01*
X144352000Y-134821970D02*
X144352000Y-112821950D01*
D11*
X132899171Y-112354510D02*
X131684885Y-112354510D01*
X131684885Y-112354510D02*
X131542028Y-112425939D01*
X131542028Y-112425939D02*
X131470600Y-112497368D01*
X131470600Y-112497368D02*
X131399171Y-112640225D01*
X131399171Y-112640225D02*
X131399171Y-112925939D01*
X131399171Y-112925939D02*
X131470600Y-113068796D01*
X131470600Y-113068796D02*
X131542028Y-113140225D01*
X131542028Y-113140225D02*
X131684885Y-113211653D01*
X131684885Y-113211653D02*
X132899171Y-113211653D01*
X131399171Y-113925939D02*
X132899171Y-113925939D01*
X132899171Y-113925939D02*
X131827742Y-114425939D01*
X131827742Y-114425939D02*
X132899171Y-114925939D01*
X132899171Y-114925939D02*
X131399171Y-114925939D01*
X131399171Y-115711654D02*
X131399171Y-115997368D01*
X131399171Y-115997368D02*
X131470600Y-116140225D01*
X131470600Y-116140225D02*
X131542028Y-116211654D01*
X131542028Y-116211654D02*
X131756314Y-116354511D01*
X131756314Y-116354511D02*
X132042028Y-116425940D01*
X132042028Y-116425940D02*
X132613457Y-116425940D01*
X132613457Y-116425940D02*
X132756314Y-116354511D01*
X132756314Y-116354511D02*
X132827742Y-116283083D01*
X132827742Y-116283083D02*
X132899171Y-116140225D01*
X132899171Y-116140225D02*
X132899171Y-115854511D01*
X132899171Y-115854511D02*
X132827742Y-115711654D01*
X132827742Y-115711654D02*
X132756314Y-115640225D01*
X132756314Y-115640225D02*
X132613457Y-115568797D01*
X132613457Y-115568797D02*
X132256314Y-115568797D01*
X132256314Y-115568797D02*
X132113457Y-115640225D01*
X132113457Y-115640225D02*
X132042028Y-115711654D01*
X132042028Y-115711654D02*
X131970600Y-115854511D01*
X131970600Y-115854511D02*
X131970600Y-116140225D01*
X131970600Y-116140225D02*
X132042028Y-116283083D01*
X132042028Y-116283083D02*
X132113457Y-116354511D01*
X132113457Y-116354511D02*
X132256314Y-116425940D01*
X132256314Y-117283082D02*
X132327742Y-117140225D01*
X132327742Y-117140225D02*
X132399171Y-117068796D01*
X132399171Y-117068796D02*
X132542028Y-116997368D01*
X132542028Y-116997368D02*
X132613457Y-116997368D01*
X132613457Y-116997368D02*
X132756314Y-117068796D01*
X132756314Y-117068796D02*
X132827742Y-117140225D01*
X132827742Y-117140225D02*
X132899171Y-117283082D01*
X132899171Y-117283082D02*
X132899171Y-117568796D01*
X132899171Y-117568796D02*
X132827742Y-117711654D01*
X132827742Y-117711654D02*
X132756314Y-117783082D01*
X132756314Y-117783082D02*
X132613457Y-117854511D01*
X132613457Y-117854511D02*
X132542028Y-117854511D01*
X132542028Y-117854511D02*
X132399171Y-117783082D01*
X132399171Y-117783082D02*
X132327742Y-117711654D01*
X132327742Y-117711654D02*
X132256314Y-117568796D01*
X132256314Y-117568796D02*
X132256314Y-117283082D01*
X132256314Y-117283082D02*
X132184885Y-117140225D01*
X132184885Y-117140225D02*
X132113457Y-117068796D01*
X132113457Y-117068796D02*
X131970600Y-116997368D01*
X131970600Y-116997368D02*
X131684885Y-116997368D01*
X131684885Y-116997368D02*
X131542028Y-117068796D01*
X131542028Y-117068796D02*
X131470600Y-117140225D01*
X131470600Y-117140225D02*
X131399171Y-117283082D01*
X131399171Y-117283082D02*
X131399171Y-117568796D01*
X131399171Y-117568796D02*
X131470600Y-117711654D01*
X131470600Y-117711654D02*
X131542028Y-117783082D01*
X131542028Y-117783082D02*
X131684885Y-117854511D01*
X131684885Y-117854511D02*
X131970600Y-117854511D01*
X131970600Y-117854511D02*
X132113457Y-117783082D01*
X132113457Y-117783082D02*
X132184885Y-117711654D01*
X132184885Y-117711654D02*
X132256314Y-117568796D01*
X132899171Y-118783082D02*
X132899171Y-118925939D01*
X132899171Y-118925939D02*
X132827742Y-119068796D01*
X132827742Y-119068796D02*
X132756314Y-119140225D01*
X132756314Y-119140225D02*
X132613457Y-119211653D01*
X132613457Y-119211653D02*
X132327742Y-119283082D01*
X132327742Y-119283082D02*
X131970600Y-119283082D01*
X131970600Y-119283082D02*
X131684885Y-119211653D01*
X131684885Y-119211653D02*
X131542028Y-119140225D01*
X131542028Y-119140225D02*
X131470600Y-119068796D01*
X131470600Y-119068796D02*
X131399171Y-118925939D01*
X131399171Y-118925939D02*
X131399171Y-118783082D01*
X131399171Y-118783082D02*
X131470600Y-118640225D01*
X131470600Y-118640225D02*
X131542028Y-118568796D01*
X131542028Y-118568796D02*
X131684885Y-118497367D01*
X131684885Y-118497367D02*
X131970600Y-118425939D01*
X131970600Y-118425939D02*
X132327742Y-118425939D01*
X132327742Y-118425939D02*
X132613457Y-118497367D01*
X132613457Y-118497367D02*
X132756314Y-118568796D01*
X132756314Y-118568796D02*
X132827742Y-118640225D01*
X132827742Y-118640225D02*
X132899171Y-118783082D01*
X131399171Y-121068795D02*
X132899171Y-121068795D01*
X132899171Y-121068795D02*
X131827742Y-121568795D01*
X131827742Y-121568795D02*
X132899171Y-122068795D01*
X132899171Y-122068795D02*
X131399171Y-122068795D01*
X131399171Y-122997367D02*
X131470600Y-122854510D01*
X131470600Y-122854510D02*
X131542028Y-122783081D01*
X131542028Y-122783081D02*
X131684885Y-122711653D01*
X131684885Y-122711653D02*
X132113457Y-122711653D01*
X132113457Y-122711653D02*
X132256314Y-122783081D01*
X132256314Y-122783081D02*
X132327742Y-122854510D01*
X132327742Y-122854510D02*
X132399171Y-122997367D01*
X132399171Y-122997367D02*
X132399171Y-123211653D01*
X132399171Y-123211653D02*
X132327742Y-123354510D01*
X132327742Y-123354510D02*
X132256314Y-123425939D01*
X132256314Y-123425939D02*
X132113457Y-123497367D01*
X132113457Y-123497367D02*
X131684885Y-123497367D01*
X131684885Y-123497367D02*
X131542028Y-123425939D01*
X131542028Y-123425939D02*
X131470600Y-123354510D01*
X131470600Y-123354510D02*
X131399171Y-123211653D01*
X131399171Y-123211653D02*
X131399171Y-122997367D01*
X131399171Y-124783082D02*
X132899171Y-124783082D01*
X131470600Y-124783082D02*
X131399171Y-124640224D01*
X131399171Y-124640224D02*
X131399171Y-124354510D01*
X131399171Y-124354510D02*
X131470600Y-124211653D01*
X131470600Y-124211653D02*
X131542028Y-124140224D01*
X131542028Y-124140224D02*
X131684885Y-124068796D01*
X131684885Y-124068796D02*
X132113457Y-124068796D01*
X132113457Y-124068796D02*
X132256314Y-124140224D01*
X132256314Y-124140224D02*
X132327742Y-124211653D01*
X132327742Y-124211653D02*
X132399171Y-124354510D01*
X132399171Y-124354510D02*
X132399171Y-124640224D01*
X132399171Y-124640224D02*
X132327742Y-124783082D01*
X132399171Y-126140225D02*
X131399171Y-126140225D01*
X132399171Y-125497367D02*
X131613457Y-125497367D01*
X131613457Y-125497367D02*
X131470600Y-125568796D01*
X131470600Y-125568796D02*
X131399171Y-125711653D01*
X131399171Y-125711653D02*
X131399171Y-125925939D01*
X131399171Y-125925939D02*
X131470600Y-126068796D01*
X131470600Y-126068796D02*
X131542028Y-126140225D01*
X131399171Y-127068796D02*
X131470600Y-126925939D01*
X131470600Y-126925939D02*
X131613457Y-126854510D01*
X131613457Y-126854510D02*
X132899171Y-126854510D01*
X131470600Y-128211653D02*
X131399171Y-128068796D01*
X131399171Y-128068796D02*
X131399171Y-127783082D01*
X131399171Y-127783082D02*
X131470600Y-127640224D01*
X131470600Y-127640224D02*
X131613457Y-127568796D01*
X131613457Y-127568796D02*
X132184885Y-127568796D01*
X132184885Y-127568796D02*
X132327742Y-127640224D01*
X132327742Y-127640224D02*
X132399171Y-127783082D01*
X132399171Y-127783082D02*
X132399171Y-128068796D01*
X132399171Y-128068796D02*
X132327742Y-128211653D01*
X132327742Y-128211653D02*
X132184885Y-128283082D01*
X132184885Y-128283082D02*
X132042028Y-128283082D01*
X132042028Y-128283082D02*
X131899171Y-127568796D01*
X132827742Y-130854510D02*
X132899171Y-130711653D01*
X132899171Y-130711653D02*
X132899171Y-130497367D01*
X132899171Y-130497367D02*
X132827742Y-130283081D01*
X132827742Y-130283081D02*
X132684885Y-130140224D01*
X132684885Y-130140224D02*
X132542028Y-130068795D01*
X132542028Y-130068795D02*
X132256314Y-129997367D01*
X132256314Y-129997367D02*
X132042028Y-129997367D01*
X132042028Y-129997367D02*
X131756314Y-130068795D01*
X131756314Y-130068795D02*
X131613457Y-130140224D01*
X131613457Y-130140224D02*
X131470600Y-130283081D01*
X131470600Y-130283081D02*
X131399171Y-130497367D01*
X131399171Y-130497367D02*
X131399171Y-130640224D01*
X131399171Y-130640224D02*
X131470600Y-130854510D01*
X131470600Y-130854510D02*
X131542028Y-130925938D01*
X131542028Y-130925938D02*
X132042028Y-130925938D01*
X132042028Y-130925938D02*
X132042028Y-130640224D01*
X131399171Y-131568795D02*
X132899171Y-131568795D01*
X132899171Y-131568795D02*
X131399171Y-132425938D01*
X131399171Y-132425938D02*
X132899171Y-132425938D01*
X131470600Y-133068796D02*
X131399171Y-133283082D01*
X131399171Y-133283082D02*
X131399171Y-133640224D01*
X131399171Y-133640224D02*
X131470600Y-133783082D01*
X131470600Y-133783082D02*
X131542028Y-133854510D01*
X131542028Y-133854510D02*
X131684885Y-133925939D01*
X131684885Y-133925939D02*
X131827742Y-133925939D01*
X131827742Y-133925939D02*
X131970600Y-133854510D01*
X131970600Y-133854510D02*
X132042028Y-133783082D01*
X132042028Y-133783082D02*
X132113457Y-133640224D01*
X132113457Y-133640224D02*
X132184885Y-133354510D01*
X132184885Y-133354510D02*
X132256314Y-133211653D01*
X132256314Y-133211653D02*
X132327742Y-133140224D01*
X132327742Y-133140224D02*
X132470600Y-133068796D01*
X132470600Y-133068796D02*
X132613457Y-133068796D01*
X132613457Y-133068796D02*
X132756314Y-133140224D01*
X132756314Y-133140224D02*
X132827742Y-133211653D01*
X132827742Y-133211653D02*
X132899171Y-133354510D01*
X132899171Y-133354510D02*
X132899171Y-133711653D01*
X132899171Y-133711653D02*
X132827742Y-133925939D01*
X131470600Y-134497367D02*
X131399171Y-134711653D01*
X131399171Y-134711653D02*
X131399171Y-135068795D01*
X131399171Y-135068795D02*
X131470600Y-135211653D01*
X131470600Y-135211653D02*
X131542028Y-135283081D01*
X131542028Y-135283081D02*
X131684885Y-135354510D01*
X131684885Y-135354510D02*
X131827742Y-135354510D01*
X131827742Y-135354510D02*
X131970600Y-135283081D01*
X131970600Y-135283081D02*
X132042028Y-135211653D01*
X132042028Y-135211653D02*
X132113457Y-135068795D01*
X132113457Y-135068795D02*
X132184885Y-134783081D01*
X132184885Y-134783081D02*
X132256314Y-134640224D01*
X132256314Y-134640224D02*
X132327742Y-134568795D01*
X132327742Y-134568795D02*
X132470600Y-134497367D01*
X132470600Y-134497367D02*
X132613457Y-134497367D01*
X132613457Y-134497367D02*
X132756314Y-134568795D01*
X132756314Y-134568795D02*
X132827742Y-134640224D01*
X132827742Y-134640224D02*
X132899171Y-134783081D01*
X132899171Y-134783081D02*
X132899171Y-135140224D01*
X132899171Y-135140224D02*
X132827742Y-135354510D01*
X164899171Y-68240225D02*
X164899171Y-68525939D01*
X164899171Y-68525939D02*
X164827742Y-68668796D01*
X164827742Y-68668796D02*
X164684885Y-68811653D01*
X164684885Y-68811653D02*
X164399171Y-68883082D01*
X164399171Y-68883082D02*
X163899171Y-68883082D01*
X163899171Y-68883082D02*
X163613457Y-68811653D01*
X163613457Y-68811653D02*
X163470600Y-68668796D01*
X163470600Y-68668796D02*
X163399171Y-68525939D01*
X163399171Y-68525939D02*
X163399171Y-68240225D01*
X163399171Y-68240225D02*
X163470600Y-68097368D01*
X163470600Y-68097368D02*
X163613457Y-67954510D01*
X163613457Y-67954510D02*
X163899171Y-67883082D01*
X163899171Y-67883082D02*
X164399171Y-67883082D01*
X164399171Y-67883082D02*
X164684885Y-67954510D01*
X164684885Y-67954510D02*
X164827742Y-68097368D01*
X164827742Y-68097368D02*
X164899171Y-68240225D01*
X163399171Y-69740225D02*
X163470600Y-69597368D01*
X163470600Y-69597368D02*
X163613457Y-69525939D01*
X163613457Y-69525939D02*
X164899171Y-69525939D01*
X163399171Y-70311653D02*
X164399171Y-70311653D01*
X164899171Y-70311653D02*
X164827742Y-70240225D01*
X164827742Y-70240225D02*
X164756314Y-70311653D01*
X164756314Y-70311653D02*
X164827742Y-70383082D01*
X164827742Y-70383082D02*
X164899171Y-70311653D01*
X164899171Y-70311653D02*
X164756314Y-70311653D01*
X163399171Y-71025939D02*
X164399171Y-71025939D01*
X164256314Y-71025939D02*
X164327742Y-71097368D01*
X164327742Y-71097368D02*
X164399171Y-71240225D01*
X164399171Y-71240225D02*
X164399171Y-71454511D01*
X164399171Y-71454511D02*
X164327742Y-71597368D01*
X164327742Y-71597368D02*
X164184885Y-71668797D01*
X164184885Y-71668797D02*
X163399171Y-71668797D01*
X164184885Y-71668797D02*
X164327742Y-71740225D01*
X164327742Y-71740225D02*
X164399171Y-71883082D01*
X164399171Y-71883082D02*
X164399171Y-72097368D01*
X164399171Y-72097368D02*
X164327742Y-72240225D01*
X164327742Y-72240225D02*
X164184885Y-72311654D01*
X164184885Y-72311654D02*
X163399171Y-72311654D01*
X163470600Y-73597368D02*
X163399171Y-73454511D01*
X163399171Y-73454511D02*
X163399171Y-73168797D01*
X163399171Y-73168797D02*
X163470600Y-73025939D01*
X163470600Y-73025939D02*
X163613457Y-72954511D01*
X163613457Y-72954511D02*
X164184885Y-72954511D01*
X164184885Y-72954511D02*
X164327742Y-73025939D01*
X164327742Y-73025939D02*
X164399171Y-73168797D01*
X164399171Y-73168797D02*
X164399171Y-73454511D01*
X164399171Y-73454511D02*
X164327742Y-73597368D01*
X164327742Y-73597368D02*
X164184885Y-73668797D01*
X164184885Y-73668797D02*
X164042028Y-73668797D01*
X164042028Y-73668797D02*
X163899171Y-72954511D01*
X163399171Y-74168796D02*
X164399171Y-74954511D01*
X164399171Y-74168796D02*
X163399171Y-74954511D01*
X164184885Y-76668796D02*
X164184885Y-77168796D01*
X163399171Y-77383082D02*
X163399171Y-76668796D01*
X163399171Y-76668796D02*
X164899171Y-76668796D01*
X164899171Y-76668796D02*
X164899171Y-77383082D01*
X163470600Y-77954511D02*
X163399171Y-78168797D01*
X163399171Y-78168797D02*
X163399171Y-78525939D01*
X163399171Y-78525939D02*
X163470600Y-78668797D01*
X163470600Y-78668797D02*
X163542028Y-78740225D01*
X163542028Y-78740225D02*
X163684885Y-78811654D01*
X163684885Y-78811654D02*
X163827742Y-78811654D01*
X163827742Y-78811654D02*
X163970600Y-78740225D01*
X163970600Y-78740225D02*
X164042028Y-78668797D01*
X164042028Y-78668797D02*
X164113457Y-78525939D01*
X164113457Y-78525939D02*
X164184885Y-78240225D01*
X164184885Y-78240225D02*
X164256314Y-78097368D01*
X164256314Y-78097368D02*
X164327742Y-78025939D01*
X164327742Y-78025939D02*
X164470600Y-77954511D01*
X164470600Y-77954511D02*
X164613457Y-77954511D01*
X164613457Y-77954511D02*
X164756314Y-78025939D01*
X164756314Y-78025939D02*
X164827742Y-78097368D01*
X164827742Y-78097368D02*
X164899171Y-78240225D01*
X164899171Y-78240225D02*
X164899171Y-78597368D01*
X164899171Y-78597368D02*
X164827742Y-78811654D01*
X163399171Y-79454510D02*
X164899171Y-79454510D01*
X164899171Y-79454510D02*
X164899171Y-80025939D01*
X164899171Y-80025939D02*
X164827742Y-80168796D01*
X164827742Y-80168796D02*
X164756314Y-80240225D01*
X164756314Y-80240225D02*
X164613457Y-80311653D01*
X164613457Y-80311653D02*
X164399171Y-80311653D01*
X164399171Y-80311653D02*
X164256314Y-80240225D01*
X164256314Y-80240225D02*
X164184885Y-80168796D01*
X164184885Y-80168796D02*
X164113457Y-80025939D01*
X164113457Y-80025939D02*
X164113457Y-79454510D01*
X164899171Y-80811653D02*
X164899171Y-81740225D01*
X164899171Y-81740225D02*
X164327742Y-81240225D01*
X164327742Y-81240225D02*
X164327742Y-81454510D01*
X164327742Y-81454510D02*
X164256314Y-81597368D01*
X164256314Y-81597368D02*
X164184885Y-81668796D01*
X164184885Y-81668796D02*
X164042028Y-81740225D01*
X164042028Y-81740225D02*
X163684885Y-81740225D01*
X163684885Y-81740225D02*
X163542028Y-81668796D01*
X163542028Y-81668796D02*
X163470600Y-81597368D01*
X163470600Y-81597368D02*
X163399171Y-81454510D01*
X163399171Y-81454510D02*
X163399171Y-81025939D01*
X163399171Y-81025939D02*
X163470600Y-80883082D01*
X163470600Y-80883082D02*
X163542028Y-80811653D01*
X164756314Y-82311653D02*
X164827742Y-82383081D01*
X164827742Y-82383081D02*
X164899171Y-82525939D01*
X164899171Y-82525939D02*
X164899171Y-82883081D01*
X164899171Y-82883081D02*
X164827742Y-83025939D01*
X164827742Y-83025939D02*
X164756314Y-83097367D01*
X164756314Y-83097367D02*
X164613457Y-83168796D01*
X164613457Y-83168796D02*
X164470600Y-83168796D01*
X164470600Y-83168796D02*
X164256314Y-83097367D01*
X164256314Y-83097367D02*
X163399171Y-82240224D01*
X163399171Y-82240224D02*
X163399171Y-83168796D01*
X163970600Y-83811652D02*
X163970600Y-84954510D01*
X163399171Y-85668795D02*
X164899171Y-85668795D01*
X164899171Y-85668795D02*
X164899171Y-86240224D01*
X164899171Y-86240224D02*
X164827742Y-86383081D01*
X164827742Y-86383081D02*
X164756314Y-86454510D01*
X164756314Y-86454510D02*
X164613457Y-86525938D01*
X164613457Y-86525938D02*
X164399171Y-86525938D01*
X164399171Y-86525938D02*
X164256314Y-86454510D01*
X164256314Y-86454510D02*
X164184885Y-86383081D01*
X164184885Y-86383081D02*
X164113457Y-86240224D01*
X164113457Y-86240224D02*
X164113457Y-85668795D01*
X164899171Y-87454510D02*
X164899171Y-87740224D01*
X164899171Y-87740224D02*
X164827742Y-87883081D01*
X164827742Y-87883081D02*
X164684885Y-88025938D01*
X164684885Y-88025938D02*
X164399171Y-88097367D01*
X164399171Y-88097367D02*
X163899171Y-88097367D01*
X163899171Y-88097367D02*
X163613457Y-88025938D01*
X163613457Y-88025938D02*
X163470600Y-87883081D01*
X163470600Y-87883081D02*
X163399171Y-87740224D01*
X163399171Y-87740224D02*
X163399171Y-87454510D01*
X163399171Y-87454510D02*
X163470600Y-87311653D01*
X163470600Y-87311653D02*
X163613457Y-87168795D01*
X163613457Y-87168795D02*
X163899171Y-87097367D01*
X163899171Y-87097367D02*
X164399171Y-87097367D01*
X164399171Y-87097367D02*
X164684885Y-87168795D01*
X164684885Y-87168795D02*
X164827742Y-87311653D01*
X164827742Y-87311653D02*
X164899171Y-87454510D01*
X164184885Y-88740224D02*
X164184885Y-89240224D01*
X163399171Y-89454510D02*
X163399171Y-88740224D01*
X163399171Y-88740224D02*
X164899171Y-88740224D01*
X164899171Y-88740224D02*
X164899171Y-89454510D01*
X164756314Y-90025939D02*
X164827742Y-90097367D01*
X164827742Y-90097367D02*
X164899171Y-90240225D01*
X164899171Y-90240225D02*
X164899171Y-90597367D01*
X164899171Y-90597367D02*
X164827742Y-90740225D01*
X164827742Y-90740225D02*
X164756314Y-90811653D01*
X164756314Y-90811653D02*
X164613457Y-90883082D01*
X164613457Y-90883082D02*
X164470600Y-90883082D01*
X164470600Y-90883082D02*
X164256314Y-90811653D01*
X164256314Y-90811653D02*
X163399171Y-89954510D01*
X163399171Y-89954510D02*
X163399171Y-90883082D01*
D12*
X197750001Y-65999999D02*
G75*
G02*
X195750000Y-68000001I-2000001J-1D01*
G01*
X195750000Y-68000000D02*
X193250002Y-67999998D01*
X109750000Y-108000000D02*
G75*
G02*
X107750000Y-105999999I0J2000000D01*
G01*
X107750000Y-49999999D02*
X107749999Y-105999999D01*
X109750000Y-108000000D02*
X195750000Y-108000000D01*
X107750000Y-49999999D02*
G75*
G02*
X109750001Y-48000000I2000000J-1D01*
G01*
X193250001Y-88000000D02*
X195750000Y-87999999D01*
X197750001Y-105999999D02*
G75*
G02*
X195750000Y-108000001I-2000001J-1D01*
G01*
X191250001Y-69999999D02*
X191250000Y-85999999D01*
X193250001Y-88000000D02*
G75*
G02*
X191250000Y-85999999I-1J2000000D01*
G01*
X195750000Y-87999999D02*
G75*
G02*
X197750001Y-89999999I0J-2000001D01*
G01*
X191250001Y-69999999D02*
G75*
G02*
X193250002Y-68000001I1999999J-1D01*
G01*
X197750000Y-89999999D02*
X197750001Y-105999999D01*
X195750000Y-47999998D02*
G75*
G02*
X197750002Y-49999999I0J-2000002D01*
G01*
X197750001Y-49999999D02*
X197750001Y-65999999D01*
X109750001Y-47999998D02*
X195750000Y-47999998D01*
D13*
X182874819Y-40663333D02*
X183589104Y-40663333D01*
X183589104Y-40663333D02*
X183731961Y-40710952D01*
X183731961Y-40710952D02*
X183827200Y-40806190D01*
X183827200Y-40806190D02*
X183874819Y-40949047D01*
X183874819Y-40949047D02*
X183874819Y-41044285D01*
X183874819Y-39663333D02*
X183874819Y-40234761D01*
X183874819Y-39949047D02*
X182874819Y-39949047D01*
X182874819Y-39949047D02*
X183017676Y-40044285D01*
X183017676Y-40044285D02*
X183112914Y-40139523D01*
X183112914Y-40139523D02*
X183160533Y-40234761D01*
X191936666Y-110874819D02*
X191936666Y-111589104D01*
X191936666Y-111589104D02*
X191889047Y-111731961D01*
X191889047Y-111731961D02*
X191793809Y-111827200D01*
X191793809Y-111827200D02*
X191650952Y-111874819D01*
X191650952Y-111874819D02*
X191555714Y-111874819D01*
X192365238Y-110970057D02*
X192412857Y-110922438D01*
X192412857Y-110922438D02*
X192508095Y-110874819D01*
X192508095Y-110874819D02*
X192746190Y-110874819D01*
X192746190Y-110874819D02*
X192841428Y-110922438D01*
X192841428Y-110922438D02*
X192889047Y-110970057D01*
X192889047Y-110970057D02*
X192936666Y-111065295D01*
X192936666Y-111065295D02*
X192936666Y-111160533D01*
X192936666Y-111160533D02*
X192889047Y-111303390D01*
X192889047Y-111303390D02*
X192317619Y-111874819D01*
X192317619Y-111874819D02*
X192936666Y-111874819D01*
D14*
%TO.C,J1*%
X141630000Y-35770000D02*
X182530000Y-35770000D01*
X141630000Y-44890000D02*
X141630000Y-35770000D01*
X142930000Y-37080000D02*
X160030000Y-37080000D01*
X142930000Y-43580000D02*
X142930000Y-37080000D01*
X160030000Y-37080000D02*
X160030000Y-35770000D01*
X160030000Y-37080000D02*
X160030000Y-37080000D01*
X164130000Y-35770000D02*
X164130000Y-37080000D01*
X164130000Y-37080000D02*
X181230000Y-37080000D01*
X176820000Y-34380000D02*
X177320000Y-35380000D01*
X177320000Y-35380000D02*
X177820000Y-34380000D01*
X177820000Y-34380000D02*
X176820000Y-34380000D01*
X181230000Y-37080000D02*
X181230000Y-43580000D01*
X181230000Y-43580000D02*
X142930000Y-43580000D01*
X182530000Y-35770000D02*
X182530000Y-44890000D01*
X182530000Y-44890000D02*
X141630000Y-44890000D01*
%TO.C,J2*%
X186320000Y-117020000D02*
X186320000Y-118020000D01*
X186320000Y-118020000D02*
X187320000Y-117520000D01*
X187320000Y-117520000D02*
X186320000Y-117020000D01*
X187710000Y-112310000D02*
X196830000Y-112310000D01*
X187710000Y-121820000D02*
X189020000Y-121820000D01*
X187710000Y-135430000D02*
X187710000Y-112310000D01*
X189020000Y-113610000D02*
X195520000Y-113610000D01*
X189020000Y-121820000D02*
X189020000Y-113610000D01*
X189020000Y-125920000D02*
X187710000Y-125920000D01*
X189020000Y-125920000D02*
X189020000Y-125920000D01*
X189020000Y-134130000D02*
X189020000Y-125920000D01*
X195520000Y-113610000D02*
X195520000Y-134130000D01*
X195520000Y-134130000D02*
X189020000Y-134130000D01*
X196830000Y-112310000D02*
X196830000Y-135430000D01*
X196830000Y-135430000D02*
X187710000Y-135430000D01*
%TD*%
M02*
