%TF.GenerationSoftware,KiCad,Pcbnew,9.0.1*%
%TF.CreationDate,2025-05-18T15:09:49+03:00*%
%TF.ProjectId,gnss_motherboard,676e7373-5f6d-46f7-9468-6572626f6172,rev?*%
%TF.SameCoordinates,Original*%
%TF.FileFunction,Copper,L1,Top*%
%TF.FilePolarity,Positive*%
%FSLAX46Y46*%
G04 Gerber Fmt 4.6, Leading zero omitted, Abs format (unit mm)*
G04 Created by KiCad (PCBNEW 9.0.1) date 2025-05-18 15:09:49*
%MOMM*%
%LPD*%
G01*
G04 APERTURE LIST*
G04 Aperture macros list*
%AMRoundRect*
0 Rectangle with rounded corners*
0 $1 Rounding radius*
0 $2 $3 $4 $5 $6 $7 $8 $9 X,Y pos of 4 corners*
0 Add a 4 corners polygon primitive as box body*
4,1,4,$2,$3,$4,$5,$6,$7,$8,$9,$2,$3,0*
0 Add four circle primitives for the rounded corners*
1,1,$1+$1,$2,$3*
1,1,$1+$1,$4,$5*
1,1,$1+$1,$6,$7*
1,1,$1+$1,$8,$9*
0 Add four rect primitives between the rounded corners*
20,1,$1+$1,$2,$3,$4,$5,0*
20,1,$1+$1,$4,$5,$6,$7,0*
20,1,$1+$1,$6,$7,$8,$9,0*
20,1,$1+$1,$8,$9,$2,$3,0*%
G04 Aperture macros list end*
%TA.AperFunction,ComponentPad*%
%ADD10C,3.800000*%
%TD*%
%TA.AperFunction,ComponentPad*%
%ADD11RoundRect,0.250000X-0.600000X0.600000X-0.600000X-0.600000X0.600000X-0.600000X0.600000X0.600000X0*%
%TD*%
%TA.AperFunction,ComponentPad*%
%ADD12C,1.700000*%
%TD*%
%TA.AperFunction,ComponentPad*%
%ADD13RoundRect,0.250000X-0.600000X-0.600000X0.600000X-0.600000X0.600000X0.600000X-0.600000X0.600000X0*%
%TD*%
%TA.AperFunction,Conductor*%
%ADD14C,0.790000*%
%TD*%
%TA.AperFunction,Conductor*%
%ADD15C,0.200000*%
%TD*%
G04 APERTURE END LIST*
D10*
%TO.P,H4,1*%
%TO.N,N/C*%
X136759999Y-103990000D03*
%TD*%
%TO.P,H9,1*%
%TO.N,N/C*%
X136759999Y-51990000D03*
%TD*%
%TO.P,H5,1*%
%TO.N,N/C*%
X186759999Y-51990000D03*
%TD*%
%TO.P,H14,1*%
%TO.N,N/C*%
X141350000Y-133800000D03*
%TD*%
%TO.P,H13,1*%
%TO.N,N/C*%
X110352000Y-133821971D03*
%TD*%
%TO.P,H12,1*%
%TO.N,N/C*%
X164200000Y-119800000D03*
%TD*%
%TO.P,H11,1*%
%TO.N,N/C*%
X95200000Y-86300000D03*
%TD*%
%TO.P,H10,1*%
%TO.N,N/C*%
X186759999Y-103990000D03*
%TD*%
%TO.P,H8,1*%
%TO.N,N/C*%
X141350000Y-113790000D03*
%TD*%
%TO.P,H7,1*%
%TO.N,N/C*%
X190200000Y-86300000D03*
%TD*%
%TO.P,H6,1*%
%TO.N,N/C*%
X164200000Y-52800000D03*
%TD*%
%TO.P,H3,1*%
%TO.N,N/C*%
X110352000Y-113821971D03*
%TD*%
%TO.P,H2,1*%
%TO.N,N/C*%
X121200000Y-119800000D03*
%TD*%
%TO.P,H1,1*%
%TO.N,N/C*%
X121200000Y-52800000D03*
%TD*%
D11*
%TO.P,J1,1,Pin_1*%
%TO.N,unconnected-(J1-Pin_1-Pad1)*%
X177320000Y-39060000D03*
D12*
%TO.P,J1,2,Pin_2*%
%TO.N,/GND*%
X177320000Y-41600000D03*
%TO.P,J1,3,Pin_3*%
%TO.N,unconnected-(J1-Pin_3-Pad3)*%
X174780000Y-39060000D03*
%TO.P,J1,4,Pin_4*%
%TO.N,/GND*%
X174780000Y-41600000D03*
%TO.P,J1,5,Pin_5*%
%TO.N,/+5V*%
X172240000Y-39060000D03*
%TO.P,J1,6,Pin_6*%
%TO.N,/GND*%
X172240000Y-41600000D03*
%TO.P,J1,7,Pin_7*%
%TO.N,unconnected-(J1-Pin_7-Pad7)*%
X169700000Y-39060000D03*
%TO.P,J1,8,Pin_8*%
%TO.N,/GND*%
X169700000Y-41600000D03*
%TO.P,J1,9,Pin_9*%
%TO.N,unconnected-(J1-Pin_9-Pad9)*%
X167160000Y-39060000D03*
%TO.P,J1,10,Pin_10*%
%TO.N,unconnected-(J1-Pin_10-Pad10)*%
X167160000Y-41600000D03*
%TO.P,J1,11,Pin_11*%
%TO.N,unconnected-(J1-Pin_11-Pad11)*%
X164620000Y-39060000D03*
%TO.P,J1,12,Pin_12*%
%TO.N,unconnected-(J1-Pin_12-Pad12)*%
X164620000Y-41600000D03*
%TO.P,J1,13,Pin_13*%
%TO.N,unconnected-(J1-Pin_13-Pad13)*%
X162080000Y-39060000D03*
%TO.P,J1,14,Pin_14*%
%TO.N,unconnected-(J1-Pin_14-Pad14)*%
X162080000Y-41600000D03*
%TO.P,J1,15,Pin_15*%
%TO.N,unconnected-(J1-Pin_15-Pad15)*%
X159540000Y-39060000D03*
%TO.P,J1,16,Pin_16*%
%TO.N,unconnected-(J1-Pin_16-Pad16)*%
X159540000Y-41600000D03*
%TO.P,J1,17,Pin_17*%
%TO.N,unconnected-(J1-Pin_17-Pad17)*%
X157000000Y-39060000D03*
%TO.P,J1,18,Pin_18*%
%TO.N,unconnected-(J1-Pin_18-Pad18)*%
X157000000Y-41600000D03*
%TO.P,J1,19,Pin_19*%
%TO.N,unconnected-(J1-Pin_19-Pad19)*%
X154460000Y-39060000D03*
%TO.P,J1,20,Pin_20*%
%TO.N,unconnected-(J1-Pin_20-Pad20)*%
X154460000Y-41600000D03*
%TO.P,J1,21,Pin_21*%
%TO.N,unconnected-(J1-Pin_21-Pad21)*%
X151920000Y-39060000D03*
%TO.P,J1,22,Pin_22*%
%TO.N,unconnected-(J1-Pin_22-Pad22)*%
X151920000Y-41600000D03*
%TO.P,J1,23,Pin_23*%
%TO.N,unconnected-(J1-Pin_23-Pad23)*%
X149380000Y-39060000D03*
%TO.P,J1,24,Pin_24*%
%TO.N,/GPIO15*%
X149380000Y-41600000D03*
%TO.P,J1,25,Pin_25*%
%TO.N,unconnected-(J1-Pin_25-Pad25)*%
X146840000Y-39060000D03*
%TO.P,J1,26,Pin_26*%
%TO.N,/GPIO14*%
X146840000Y-41600000D03*
%TD*%
D13*
%TO.P,J2,1,Pin_1*%
%TO.N,unconnected-(J2-Pin_1-Pad1)*%
X191000000Y-117520000D03*
D12*
%TO.P,J2,2,Pin_2*%
%TO.N,unconnected-(J2-Pin_2-Pad2)*%
X193540000Y-117520000D03*
%TO.P,J2,3,Pin_3*%
%TO.N,/+5V*%
X191000000Y-120060000D03*
%TO.P,J2,4,Pin_4*%
X193540000Y-120060000D03*
%TO.P,J2,5,Pin_5*%
%TO.N,/GPIO14*%
X191000000Y-122600000D03*
%TO.P,J2,6,Pin_6*%
%TO.N,unconnected-(J2-Pin_6-Pad6)*%
X193540000Y-122600000D03*
%TO.P,J2,7,Pin_7*%
%TO.N,/GPIO15*%
X191000000Y-125140000D03*
%TO.P,J2,8,Pin_8*%
%TO.N,unconnected-(J2-Pin_8-Pad8)*%
X193540000Y-125140000D03*
%TO.P,J2,9,Pin_9*%
%TO.N,/GND*%
X191000000Y-127680000D03*
%TO.P,J2,10,Pin_10*%
X193540000Y-127680000D03*
%TO.P,J2,11,Pin_11*%
%TO.N,unconnected-(J2-Pin_11-Pad11)*%
X191000000Y-130220000D03*
%TO.P,J2,12,Pin_12*%
%TO.N,unconnected-(J2-Pin_12-Pad12)*%
X193540000Y-130220000D03*
%TD*%
D14*
%TO.N,/+5V*%
X191000000Y-120060000D02*
X193540000Y-120060000D01*
X189797919Y-120060000D02*
X191000000Y-120060000D01*
X182160000Y-36200000D02*
X182160000Y-112422081D01*
X182160000Y-112422081D02*
X189797919Y-120060000D01*
X172380000Y-36200000D02*
X182160000Y-36200000D01*
X172250000Y-36350000D02*
X172240000Y-36340000D01*
X172240000Y-36340000D02*
X172380000Y-36200000D01*
X172250000Y-37240000D02*
X172250000Y-36350000D01*
X172240000Y-37250000D02*
X172250000Y-37240000D01*
X172240000Y-39060000D02*
X172240000Y-37250000D01*
D15*
%TO.N,/GPIO14*%
X146840000Y-47240000D02*
X146840000Y-41600000D01*
X146900000Y-47300000D02*
X146840000Y-47240000D01*
X169700000Y-47300000D02*
X146900000Y-47300000D01*
X169700000Y-131200000D02*
X169700000Y-47300000D01*
X195510000Y-132330000D02*
X195530000Y-132350000D01*
X195510000Y-123940000D02*
X195510000Y-132330000D01*
X195530000Y-132350000D02*
X170850000Y-132350000D01*
X195460000Y-123890000D02*
X195510000Y-123940000D01*
X170850000Y-132350000D02*
X169700000Y-131200000D01*
X192290000Y-123890000D02*
X195460000Y-123890000D01*
X191000000Y-122600000D02*
X192290000Y-123890000D01*
%TO.N,/GPIO15*%
X170900000Y-125140000D02*
X170900000Y-46700000D01*
X170900000Y-125140000D02*
X190440000Y-125140000D01*
X170800000Y-46600000D02*
X170900000Y-46700000D01*
X149400000Y-46600000D02*
X170800000Y-46600000D01*
X149380000Y-46580000D02*
X149400000Y-46600000D01*
X149380000Y-41600000D02*
X149380000Y-46580000D01*
%TD*%
M02*
