M48
; DRILL file {KiCad 9.0.1} date 2025-05-18T15:09:51+0300
; FORMAT={-:-/ absolute / inch / decimal}
; #@! TF.CreationDate,2025-05-18T15:09:51+03:00
; #@! TF.GenerationSoftware,Kicad,Pcbnew,9.0.1
; #@! TF.FileFunction,Plated,1,2,PTH
FMAT,2
INCH
; #@! TA.AperFunction,Plated,PTH,ComponentDrill
T1C0.0394
; #@! TA.AperFunction,Plated,PTH,ComponentDrill
T2C0.0866
%
G90
G05
T1
X5.7811Y-1.5378
X5.7811Y-1.6378
X5.8811Y-1.5378
X5.8811Y-1.6378
X5.9811Y-1.5378
X5.9811Y-1.6378
X6.0811Y-1.5378
X6.0811Y-1.6378
X6.1811Y-1.5378
X6.1811Y-1.6378
X6.2811Y-1.5378
X6.2811Y-1.6378
X6.3811Y-1.5378
X6.3811Y-1.6378
X6.4811Y-1.5378
X6.4811Y-1.6378
X6.5811Y-1.5378
X6.5811Y-1.6378
X6.6811Y-1.5378
X6.6811Y-1.6378
X6.7811Y-1.5378
X6.7811Y-1.6378
X6.8811Y-1.5378
X6.8811Y-1.6378
X6.9811Y-1.5378
X6.9811Y-1.6378
X7.5197Y-4.6268
X7.5197Y-4.7268
X7.5197Y-4.8268
X7.5197Y-4.9268
X7.5197Y-5.0268
X7.5197Y-5.1268
X7.6197Y-4.6268
X7.6197Y-4.7268
X7.6197Y-4.8268
X7.6197Y-4.9268
X7.6197Y-5.0268
X7.6197Y-5.1268
T2
X3.748Y-3.3976
X4.3446Y-4.4812
X4.3446Y-5.2686
X4.7717Y-2.0787
X4.7717Y-4.7165
X5.3843Y-2.0469
X5.3843Y-4.0941
X5.565Y-4.4799
X5.565Y-5.2677
X6.4646Y-2.0787
X6.4646Y-4.7165
X7.3528Y-2.0469
X7.3528Y-4.0941
X7.4882Y-3.3976
M30
